<?xml version="1.0" encoding="UTF-8"?>
<svg version="1.1" xmlns="http://www.w3.org/2000/svg" width="340" height="127">
<path d="M0 0 C37.29 0 74.58 0 113 0 C113 4.95 113 9.9 113 15 C106.07 15 99.14 15 92 15 C92 31.5 92 48 92 65 C86.39 65 80.78 65 75 65 C75 48.5 75 32 75 15 C62.46 15 49.92 15 37 15 C37 31.5 37 48 37 65 C31.39 65 25.78 65 20 65 C20 48.5 20 32 20 15 C13.4 15 6.8 15 0 15 C0 10.05 0 5.1 0 0 Z " fill="#1C8ACB" transform="translate(161,30)"/>
<path d="M0 0 C5.14200135 1.02840027 6.06023743 1.56638255 9.625 5 C13.07151099 8.23301031 16.5535127 11.30589507 20.25 14.25 C27.14897512 19.82262983 33.55659556 25.91403989 40 32 C40.03758423 30.59923218 40.03758423 30.59923218 40.07592773 29.17016602 C40.17086928 25.71674811 40.27011258 22.2635104 40.37231445 18.81030273 C40.41571813 17.31360731 40.45738913 15.81686061 40.49731445 14.32006836 C40.55488616 12.17285688 40.61861716 10.02590479 40.68359375 7.87890625 C40.72025146 6.5854126 40.75690918 5.29191895 40.79467773 3.95922852 C41 1 41 1 42 0 C46.95 0 51.9 0 57 0 C57 21.45 57 42.9 57 65 C51.66518712 63.93303742 50.62470857 63.12658381 46.875 59.5 C45.90327909 58.5783644 44.92926169 57.6591449 43.953125 56.7421875 C43.46134766 56.2790918 42.96957031 55.81599609 42.46289062 55.33886719 C40.26680255 53.32896281 37.95101926 51.48173467 35.625 49.625 C29.12377619 44.38450556 23.09657707 38.70324952 17 33 C16.67 43.56 16.34 54.12 16 65 C10.72 65 5.44 65 0 65 C0 43.55 0 22.1 0 0 Z " fill="#1C8BCA" transform="translate(98,30)"/>
<path d="M0 0 C4.03200563 1.34400188 5.0103908 3.88390651 7.0625 7.375 C11.79357236 15.1811783 16.7975569 22.79157138 21.875 30.375 C22.65756823 31.5466471 23.44003914 32.71835922 24.22241211 33.89013672 C27.73797789 39.15113788 31.26785942 44.40190268 34.828125 49.6328125 C35.39160645 50.46506348 35.95508789 51.29731445 36.53564453 52.15478516 C37.56709172 53.67676391 38.60420853 55.19492151 39.64794922 56.70849609 C43 61.66375393 43 61.66375393 43 65 C37.72330189 64.47854205 33.57263019 63.09109102 28.77734375 60.8203125 C11.82333198 53.38876091 -0.69201962 50.14763556 -18.52755737 56.75970459 C-24.00221247 58.89842195 -29.4072156 61.15007156 -34.74243164 63.61621094 C-38 65 -38 65 -41 65 C-40.49277865 60.07203127 -38.04626853 56.57077711 -35.3515625 52.5625 C-34.62533188 51.46192261 -34.62533188 51.46192261 -33.88442993 50.33911133 C-32.26388147 47.88761619 -30.63191482 45.44394062 -29 43 C-27.82842505 41.232219 -26.65754236 39.46397904 -25.48730469 37.6953125 C-22.42135775 33.06682949 -19.34422836 28.44591684 -16.26220703 23.828125 C-14.34102155 20.94908067 -12.42237383 18.06835595 -10.50390625 15.1875 C-9.28139837 13.35406772 -8.05874776 11.52073061 -6.8359375 9.6875 C-6.26314056 8.82729248 -5.69034363 7.96708496 -5.10018921 7.08081055 C-4.57518829 6.29488525 -4.05018738 5.50895996 -3.50927734 4.69921875 C-3.04725922 4.00658936 -2.58524109 3.31395996 -2.10922241 2.6003418 C-1 1 -1 1 0 0 Z " fill="#F5831E" transform="translate(41,30)"/>
<path d="M0 0 C13.86 0 27.72 0 42 0 C42 4.95 42 9.9 42 15 C33.75 15 25.5 15 17 15 C17 18.3 17 21.6 17 25 C19.25650391 24.98259766 19.25650391 24.98259766 21.55859375 24.96484375 C23.51822793 24.95546751 25.47786345 24.94636713 27.4375 24.9375 C28.92733398 24.92493164 28.92733398 24.92493164 30.44726562 24.91210938 C31.86362305 24.90727539 31.86362305 24.90727539 33.30859375 24.90234375 C34.62041626 24.89448853 34.62041626 24.89448853 35.95874023 24.88647461 C38 25 38 25 39 26 C39.09909302 28.33160055 39.12970504 30.66629942 39.125 33 C39.12886719 34.918125 39.12886719 34.918125 39.1328125 36.875 C39 40 39 40 38 41 C36.43827255 41.08685603 34.87270656 41.10702219 33.30859375 41.09765625 C32.45837646 41.09515869 31.60815918 41.09266113 30.73217773 41.09008789 C29.64493408 41.08098389 28.55769043 41.07187988 27.4375 41.0625 C23.993125 41.041875 20.54875 41.02125 17 41 C17 48.92 17 56.84 17 65 C11.39 65 5.78 65 0 65 C0 43.55 0 22.1 0 0 Z " fill="#1B8DCC" transform="translate(279,30)"/>
<path d="M0 0 C3.67594494 2.20556697 5.34430714 5.02534116 6.67578125 9.03515625 C7.59769408 13.86821442 6.65205729 16.97618894 4 21 C0.7747104 24.72924111 -1.32860484 25.87385697 -6.3125 26.25 C-11.21489866 25.91763399 -14.48340722 24.67348168 -17.8125 21 C-20.19889845 16.9808026 -20.31143719 13.59369852 -20 9 C-16.29566945 -0.63125943 -9.61149407 -1.64564042 0 0 Z " fill="#F5831E" transform="translate(196,0)"/>
<path d="M0 0 C3.75194005 2.10108643 5.34865773 4.11365137 7 8 C7.72320767 12.62516534 7.4121396 16.14401775 5.375 20.375 C2.21531775 23.86728038 -0.34773261 25.84286387 -5.17578125 26.12890625 C-9.31369444 25.89940854 -11.81137579 25.10974499 -15.4375 23 C-18.70622789 19.17319662 -19.87936599 16.02354481 -20 11 C-18.91402272 7.10325798 -17.56237049 4.70749836 -15.0625 1.5625 C-10.18655635 -0.92522635 -5.35804544 -0.74211156 0 0 Z " fill="#F5821E" transform="translate(251,0)"/>
<path d="M0 0 C0.99 0 1.98 0 3 0 C3 1.98 3 3.96 3 6 C3.99 6 4.98 6 6 6 C6 4.35 6 2.7 6 1 C7.32 0.67 8.64 0.34 10 0 C10.33 2.64 10.66 5.28 11 8 C11 6.68 11 5.36 11 4 C16.75 2.875 16.75 2.875 19 4 C20.155 3.814375 21.31 3.62875 22.5 3.4375 C23.655 3.293125 24.81 3.14875 26 3 C26.66 3.66 27.32 4.32 28 5 C28.66 4.34 29.32 3.68 30 3 C30.99 3 31.98 3 33 3 C33 2.01 33 1.02 33 0 C34.32 0 35.64 0 37 0 C37.495 1.98 37.495 1.98 38 4 C38.78375 3.79375 39.5675 3.5875 40.375 3.375 C41.674375 3.189375 41.674375 3.189375 43 3 C45.2328877 5.2328877 45.36778152 5.91909815 45.75 8.9375 C45.84796875 9.62714844 45.9459375 10.31679687 46.046875 11.02734375 C46 13 46 13 44 16 C41.19438238 16.28056176 39.53421737 16.26710868 37 15 C35.845 15.165 34.69 15.33 33.5 15.5 C30 16 30 16 28 15 C25.32015754 15.11551045 22.6713423 15.28050159 20 15.5 C12.27027027 16.13513514 12.27027027 16.13513514 10 15 C8.68 15 7.36 15 6 15 C6 13.02 6 11.04 6 9 C5.01 9 4.02 9 3 9 C3 10.98 3 12.96 3 15 C2.01 15 1.02 15 0 15 C0 10.05 0 5.1 0 0 Z M32 6 C32 7.98 32 9.96 32 12 C32.33 12 32.66 12 33 12 C33 10.02 33 8.04 33 6 C32.67 6 32.34 6 32 6 Z M37 9 C37 9.66 37 10.32 37 11 C37.66 10.67 38.32 10.34 39 10 C38.34 9.67 37.68 9.34 37 9 Z " fill="#000000" transform="translate(275,109)"/>
<path d="M0 0 C3.125 0.3125 3.125 0.3125 5 2.3125 C5.556875 3.3025 5.556875 3.3025 6.125 4.3125 C6.8675 4.1475 7.61 3.9825 8.375 3.8125 C11.125 3.3125 11.125 3.3125 15.125 3.3125 C15.929375 3.291875 16.73375 3.27125 17.5625 3.25 C20.20009099 3.31433149 22.54285441 3.79607088 25.125 4.3125 C26.775 4.3125 28.425 4.3125 30.125 4.3125 C30.125 7.9425 30.125 11.5725 30.125 15.3125 C23.375 16.4375 23.375 16.4375 21.125 15.3125 C20.320625 15.4775 19.51625 15.6425 18.6875 15.8125 C16.125 16.3125 16.125 16.3125 13.125 15.3125 C11.11953311 15.61118656 9.11922795 15.94621323 7.125 16.3125 C5.805 16.3125 4.485 16.3125 3.125 16.3125 C1.5471875 16.3434375 1.5471875 16.3434375 -0.0625 16.375 C-2.875 16.3125 -2.875 16.3125 -3.875 15.3125 C-3.97409302 12.98089945 -4.00470504 10.64620058 -4 8.3125 C-4.00257813 7.03375 -4.00515625 5.755 -4.0078125 4.4375 C-3.83694376 0.4170591 -3.83694376 0.4170591 0 0 Z M-0.875 4.3125 C-0.545 4.9725 -0.215 5.6325 0.125 6.3125 C0.785 5.9825 1.445 5.6525 2.125 5.3125 C1.135 4.9825 0.145 4.6525 -0.875 4.3125 Z M3.125 6.3125 C3.785 6.9725 4.445 7.6325 5.125 8.3125 C5.125 7.6525 5.125 6.9925 5.125 6.3125 C4.465 6.3125 3.805 6.3125 3.125 6.3125 Z M17.125 7.3125 C17.125 8.9625 17.125 10.6125 17.125 12.3125 C17.455 11.6525 17.785 10.9925 18.125 10.3125 C19.445 10.3125 20.765 10.3125 22.125 10.3125 C21.795 9.6525 21.465 8.9925 21.125 8.3125 C19.10036745 7.66036708 19.10036745 7.66036708 17.125 7.3125 Z M-1.875 9.3125 C-1.545 10.3025 -1.215 11.2925 -0.875 12.3125 C0.115 12.3125 1.105 12.3125 2.125 12.3125 C2.125 11.6525 2.125 10.9925 2.125 10.3125 C0.805 9.9825 -0.515 9.6525 -1.875 9.3125 Z " fill="#000000" transform="translate(3.875,108.6875)"/>
<path d="M0 0 C1.216875 0.185625 2.43375 0.37125 3.6875 0.5625 C7.02977939 0.98993182 9.71968417 0.92258883 13 0 C13 0.99 13 1.98 13 3 C13.9590625 3.2165625 13.9590625 3.2165625 14.9375 3.4375 C17 4 17 4 18 5 C18.14257189 8.33618231 18.04228157 11.65975606 18 15 C12.06 15 6.12 15 0 15 C-0.33 13.68 -0.66 12.36 -1 11 C-1.33 12.32 -1.66 13.64 -2 15 C-4.97 15 -7.94 15 -11 15 C-12.19287411 11.12315913 -13 8.08378077 -13 4 C-12.443125 4.185625 -11.88625 4.37125 -11.3125 4.5625 C-8.57681481 5.08006206 -6.70010024 4.60752255 -4 4 C-2.68 4 -1.36 4 0 4 C0 2.68 0 1.36 0 0 Z M8 7 C8 8.65 8 10.3 8 12 C8.33 12 8.66 12 9 12 C9 10.35 9 8.7 9 7 C8.67 7 8.34 7 8 7 Z " fill="#000000" transform="translate(174,109)"/>
<path d="M0 0 C2.97 0 5.94 0 9 0 C9 0.99 9 1.98 9 3 C11.97 3.33 14.94 3.66 18 4 C18 3.01 18 2.02 18 1 C19.32 1.33 20.64 1.66 22 2 C22 2.66 22 3.32 22 4 C23.32 4 24.64 4 26 4 C26 6.64 26 9.28 26 12 C26.66 12 27.32 12 28 12 C28 9.36 28 6.72 28 4 C28.99 4 29.98 4 31 4 C31 7.63 31 11.26 31 15 C26.74992534 15.9562668 23.3296576 15.84509721 19.03515625 15.19140625 C15.8907159 14.89567194 13.09451682 15.4197781 10 16 C8 13 8 13 8 9 C6.68 9 5.36 9 4 9 C4 10.98 4 12.96 4 15 C2.68 15 1.36 15 0 15 C0 10.05 0 5.1 0 0 Z M4 4 C4 4.66 4 5.32 4 6 C5.32 6 6.64 6 8 6 C8 5.34 8 4.68 8 4 C6.68 4 5.36 4 4 4 Z M22 7 C22 8.65 22 10.3 22 12 C22.33 12 22.66 12 23 12 C23 10.35 23 8.7 23 7 C22.67 7 22.34 7 22 7 Z " fill="#000000" transform="translate(109,109)"/>
<path d="M0 0 C1.32 0 2.64 0 4 0 C4 0.99 4 1.98 4 3 C5.093125 2.979375 6.18625 2.95875 7.3125 2.9375 C11 3 11 3 14 4 C14.825 3.835 15.65 3.67 16.5 3.5 C19 3 19 3 22 4 C22.02685938 6.14576637 22.04633088 8.29162645 22.0625 10.4375 C22.07410156 11.63246094 22.08570312 12.82742187 22.09765625 14.05859375 C22 17 22 17 21 18 C18.66702567 18.04092937 16.33294775 18.04241723 14 18 C13.67 17.01 13.34 16.02 13 15 C8.71 15 4.42 15 0 15 C0 12.36 0 9.72 0 7 C-0.66 7 -1.32 7 -2 7 C-2 9.64 -2 12.28 -2 15 C-3.32 15 -4.64 15 -6 15 C-6 11.37 -6 7.74 -6 4 C-4.02 3.67 -2.04 3.34 0 3 C0 2.01 0 1.02 0 0 Z M17 7 C17 8.65 17 10.3 17 12 C17.66 11.67 18.32 11.34 19 11 C18.67 9.68 18.34 8.36 18 7 C17.67 7 17.34 7 17 7 Z " fill="#000000" transform="translate(41,109)"/>
<path d="M0 0 C1.37559917 0.13112907 2.7494242 0.28191495 4.12109375 0.44921875 C9.84169538 1.00267953 15.02911808 1.13393763 20.73828125 0.1953125 C21.63933594 0.16630859 21.63933594 0.16630859 22.55859375 0.13671875 C24.55859375 2.13671875 24.55859375 2.13671875 24.75390625 4.51953125 C24.73070312 5.42445312 24.7075 6.329375 24.68359375 7.26171875 C24.66554688 8.17179687 24.6475 9.081875 24.62890625 10.01953125 C24.60570312 10.71820313 24.5825 11.416875 24.55859375 12.13671875 C21.58859375 12.13671875 18.61859375 12.13671875 15.55859375 12.13671875 C15.22859375 11.47671875 14.89859375 10.81671875 14.55859375 10.13671875 C14.22859375 10.79671875 13.89859375 11.45671875 13.55859375 12.13671875 C12.27984375 12.19859375 11.00109375 12.26046875 9.68359375 12.32421875 C8.96429688 12.35902344 8.245 12.39382812 7.50390625 12.4296875 C6.86195313 12.33300781 6.22 12.23632812 5.55859375 12.13671875 C4.89859375 11.14671875 4.23859375 10.15671875 3.55859375 9.13671875 C3.22859375 10.12671875 2.89859375 11.11671875 2.55859375 12.13671875 C-3.19140625 13.26171875 -3.19140625 13.26171875 -5.44140625 12.13671875 C-6.91812465 5.20750163 -6.91812465 5.20750163 -5.42578125 1.85546875 C-3.44140625 0.13671875 -3.44140625 0.13671875 0 0 Z M-2.44140625 4.13671875 C-2.44140625 5.78671875 -2.44140625 7.43671875 -2.44140625 9.13671875 C-1.78140625 9.13671875 -1.12140625 9.13671875 -0.44140625 9.13671875 C-0.44140625 7.48671875 -0.44140625 5.83671875 -0.44140625 4.13671875 C-1.10140625 4.13671875 -1.76140625 4.13671875 -2.44140625 4.13671875 Z " fill="#000000" transform="translate(243.44140625,111.86328125)"/>
<path d="M0 0 C0.66 0 1.32 0 2 0 C4.66666667 0 7.33333333 0 10 0 C10 3.63 10 7.26 10 11 C7.1875 11.625 7.1875 11.625 4 12 C3.01 11.34 2.02 10.68 1 10 C0.34 10.66 -0.32 11.32 -1 12 C-4.125 11.625 -4.125 11.625 -7 11 C-7.33 10.01 -7.66 9.02 -8 8 C-8.99 9.98 -9.98 11.96 -11 14 C-12.98 14 -14.96 14 -17 14 C-16.67 13.01 -16.34 12.02 -16 11 C-15.34 11 -14.68 11 -14 11 C-14.99 7.37 -15.98 3.74 -17 0 C-15.68 0 -14.36 0 -13 0 C-13 0.99 -13 1.98 -13 3 C-12.34 3 -11.68 3 -11 3 C-11 2.01 -11 1.02 -11 0 C-6.95886635 -0.84581867 -4.00336856 -1.00084214 0 0 Z M-4 3 C-4 4.65 -4 6.3 -4 8 C-3.34 8 -2.68 8 -2 8 C-2 6.35 -2 4.7 -2 3 C-2.66 3 -3.32 3 -4 3 Z " fill="#000000" transform="translate(214,113)"/>
<path d="M0 0 C2.45811625 3.68717438 2.31118164 5.64345704 2 10 C1.01 11.485 1.01 11.485 0 13 C-2.4375 13.4375 -2.4375 13.4375 -5 13 C-6.8125 11 -6.8125 11 -8 9 C-8.66 10.98 -9.32 12.96 -10 15 C-11.98 15 -13.96 15 -16 15 C-15.67 14.01 -15.34 13.02 -15 12 C-14.34 12 -13.68 12 -13 12 C-13.2165625 11.45730469 -13.433125 10.91460937 -13.65625 10.35546875 C-14.07390625 9.28232422 -14.07390625 9.28232422 -14.5 8.1875 C-14.7784375 7.47980469 -15.056875 6.77210937 -15.34375 6.04296875 C-16 4 -16 4 -16 1 C-14.68 1 -13.36 1 -12 1 C-11.67 1.66 -11.34 2.32 -11 3 C-10.67 2.34 -10.34 1.68 -10 1 C-6.67073615 0.07520449 -3.44200545 -0.3721087 0 0 Z M-3 4 C-3.33 5.32 -3.66 6.64 -4 8 C-3.01 8.495 -3.01 8.495 -2 9 C-2 7.35 -2 5.7 -2 4 C-2.33 4 -2.66 4 -3 4 Z " fill="#000000" transform="translate(85,112)"/>
<path d="M0 0 C2.20026296 1.60710451 2.90755285 2.49154067 3.3984375 5.19140625 C3.39070313 5.97386719 3.38296875 6.75632812 3.375 7.5625 C3.38273437 8.34753906 3.39046875 9.13257813 3.3984375 9.94140625 C3.26695312 10.62074219 3.13546875 11.30007812 3 12 C-0.69486103 14.46324069 -2.63293092 14.38991688 -7 14 C-8.9375 13 -8.9375 13 -10 11 C-10.52960415 7.41957756 -10.65886567 4.24021772 -8.9375 1 C-5.86784865 -0.58433618 -3.38318857 -0.36248449 0 0 Z M0 6 C1 8 1 8 1 8 Z " fill="#000000" transform="translate(337,30)"/>
<path d="M0 0 C2 2 2 2 2.265625 4.09375 C2.26046875 4.8878125 2.2553125 5.681875 2.25 6.5 C2.25515625 7.2940625 2.2603125 8.088125 2.265625 8.90625 C2 11 2 11 0 13 C-4.55555556 12.44444444 -4.55555556 12.44444444 -6 11 C-6.04092937 8.66702567 -6.04241723 6.33294775 -6 4 C-6.66 4 -7.32 4 -8 4 C-8 6.64 -8 9.28 -8 12 C-9.32 12 -10.64 12 -12 12 C-12 8.37 -12 4.74 -12 1 C-7.63642042 -0.09089489 -4.4732986 -0.21644993 0 0 Z " fill="#000000" transform="translate(153,112)"/>
<path d="M0 0 C0.99 0 1.98 0 3 0 C3.33 2.31 3.66 4.62 4 7 C4.33 4.69 4.66 2.38 5 0 C5.99 0 6.98 0 8 0 C8 3.63 8 7.26 8 11 C5.6739143 11.38063221 3.33944736 11.71269945 1 12 C0 11 0 11 -0.09765625 8.49609375 C-0.08605469 7.48675781 -0.07445313 6.47742188 -0.0625 5.4375 C-0.05347656 4.42558594 -0.04445313 3.41367188 -0.03515625 2.37109375 C-0.02355469 1.58863281 -0.01195313 0.80617188 0 0 Z " fill="#000000" transform="translate(88,113)"/>
<path d="M0 0 C0 1.32 0 2.64 0 4 C-0.99 4 -1.98 4 -3 4 C-3 6.64 -3 9.28 -3 12 C-4.32 12 -5.64 12 -7 12 C-7 8.37 -7 4.74 -7 1 C-3 0 -3 0 0 0 Z " fill="#000000" transform="translate(232,112)"/>
<path d="M0 0 C0 1.32 0 2.64 0 4 C-0.66 4 -1.32 4 -2 4 C-2 6.64 -2 9.28 -2 12 C-3.32 12 -4.64 12 -6 12 C-6 8.37 -6 4.74 -6 1 C-2 0 -2 0 0 0 Z " fill="#000000" transform="translate(103,112)"/>
</svg>
